# xmcd
#
# Track frame offsets: 
#        150
#        14736
#        24831
#        37763
#        47558
#        63810
#        76460
#        87315
#        102936
#        115004
#        124575
#        139405
#        152648
#        166440
#        175295
#        188737
#        199832
#
# Disc length: 2867 seconds
#
# Revision: 0
# Processed by: cddbd v1.5.2PL0 Copyright (c) Steve Scherf et al.
# Submitted via: ExactAudioCopy v0.99pb4
#
DISCID=d60b3111
DTITLE=Buck and The Black Cats - Ask For
DYEAR=2000
DGENRE=
TTITLE0=Chuckleberry Boogie
TTITLE1=Do What You Can
TTITLE2=Where Were You
TTITLE3=I Can't Find Good Pay
TTITLE4=Waiting On This Line
TTITLE5=Heartbreak Ahead
TTITLE6=You're No Good At All
TTITLE7=Tight
TTITLE8=If You Ain't Loving...
TTITLE9=Running Late
TTITLE10=On The Open Road
TTITLE11=Another Drink
TTITLE12=Pitch 'N Putt
TTITLE13=I've Had A Hard Time
TTITLE14=Crazy Crazy Me
TTITLE15=Indeed I Do
TTITLE16=Doing 30 In A 55
EXTD=
EXTT0=
EXTT1=
EXTT2=
EXTT3=
EXTT4=
EXTT5=
EXTT6=
EXTT7=
EXTT8=
EXTT9=
EXTT10=
EXTT11=
EXTT12=
EXTT13=
EXTT14=
EXTT15=
EXTT16=
PLAYORDER=
